<mxfile host="Electron" agent="Mozilla/5.0 (Windows NT 10.0; Win64; x64) AppleWebKit/537.36 (KHTML, like Gecko) draw.io/24.7.5 Chrome/126.0.6478.183 Electron/31.3.0 Safari/537.36" version="24.7.5" pages="2">
  <diagram name="Initial Designs" id="BdBpXy0JC9spcdzFq0uu">
    <mxGraphModel dx="1259" dy="673" grid="1" gridSize="10" guides="1" tooltips="1" connect="1" arrows="1" fold="1" page="1" pageScale="1" pageWidth="1169" pageHeight="827" math="0" shadow="0">
      <root>
        <mxCell id="0" />
        <mxCell id="1" parent="0" />
        <mxCell id="-a6vra3BTojGLcCyPydO-1" value="" style="rounded=0;whiteSpace=wrap;html=1;" parent="1" vertex="1">
          <mxGeometry x="40" y="120" width="400" height="200" as="geometry" />
        </mxCell>
        <mxCell id="-a6vra3BTojGLcCyPydO-2" value="(Digitised Notes)" style="text;html=1;align=center;verticalAlign=middle;whiteSpace=wrap;rounded=0;" parent="1" vertex="1">
          <mxGeometry x="40" y="40" width="100" height="30" as="geometry" />
        </mxCell>
        <mxCell id="-a6vra3BTojGLcCyPydO-3" value="" style="whiteSpace=wrap;html=1;aspect=fixed;" parent="1" vertex="1">
          <mxGeometry x="60" y="150" width="140" height="140" as="geometry" />
        </mxCell>
        <mxCell id="-a6vra3BTojGLcCyPydO-4" value="" style="rounded=0;whiteSpace=wrap;html=1;" parent="1" vertex="1">
          <mxGeometry x="220" y="160" width="60" height="20" as="geometry" />
        </mxCell>
        <mxCell id="-a6vra3BTojGLcCyPydO-5" value="" style="rounded=0;whiteSpace=wrap;html=1;" parent="1" vertex="1">
          <mxGeometry x="220" y="190" width="150" height="20" as="geometry" />
        </mxCell>
        <mxCell id="-a6vra3BTojGLcCyPydO-6" value="" style="rounded=0;whiteSpace=wrap;html=1;" parent="1" vertex="1">
          <mxGeometry x="220" y="270" width="30" height="20" as="geometry" />
        </mxCell>
        <mxCell id="-a6vra3BTojGLcCyPydO-7" value="" style="rounded=0;whiteSpace=wrap;html=1;" parent="1" vertex="1">
          <mxGeometry x="280" y="270" width="30" height="20" as="geometry" />
        </mxCell>
        <mxCell id="-a6vra3BTojGLcCyPydO-8" value="" style="rounded=0;whiteSpace=wrap;html=1;" parent="1" vertex="1">
          <mxGeometry x="340" y="270" width="30" height="20" as="geometry" />
        </mxCell>
        <mxCell id="-a6vra3BTojGLcCyPydO-9" value="" style="rounded=0;whiteSpace=wrap;html=1;" parent="1" vertex="1">
          <mxGeometry x="400" y="150" width="10" height="140" as="geometry" />
        </mxCell>
        <mxCell id="-a6vra3BTojGLcCyPydO-11" value="" style="rounded=0;whiteSpace=wrap;html=1;" parent="1" vertex="1">
          <mxGeometry x="40" y="360" width="400" height="200" as="geometry" />
        </mxCell>
        <mxCell id="-a6vra3BTojGLcCyPydO-12" value="" style="whiteSpace=wrap;html=1;aspect=fixed;" parent="1" vertex="1">
          <mxGeometry x="60" y="390" width="120" height="120" as="geometry" />
        </mxCell>
        <mxCell id="-a6vra3BTojGLcCyPydO-13" value="" style="rounded=0;whiteSpace=wrap;html=1;" parent="1" vertex="1">
          <mxGeometry x="60" y="520" width="60" height="20" as="geometry" />
        </mxCell>
        <mxCell id="-a6vra3BTojGLcCyPydO-14" value="" style="rounded=0;whiteSpace=wrap;html=1;" parent="1" vertex="1">
          <mxGeometry x="210" y="400" width="150" height="20" as="geometry" />
        </mxCell>
        <mxCell id="-a6vra3BTojGLcCyPydO-15" value="" style="rounded=0;whiteSpace=wrap;html=1;" parent="1" vertex="1">
          <mxGeometry x="210" y="490" width="30" height="20" as="geometry" />
        </mxCell>
        <mxCell id="-a6vra3BTojGLcCyPydO-16" value="" style="rounded=0;whiteSpace=wrap;html=1;" parent="1" vertex="1">
          <mxGeometry x="270" y="490" width="30" height="20" as="geometry" />
        </mxCell>
        <mxCell id="-a6vra3BTojGLcCyPydO-17" value="" style="rounded=0;whiteSpace=wrap;html=1;" parent="1" vertex="1">
          <mxGeometry x="330" y="490" width="30" height="20" as="geometry" />
        </mxCell>
        <mxCell id="-a6vra3BTojGLcCyPydO-18" value="" style="rounded=0;whiteSpace=wrap;html=1;" parent="1" vertex="1">
          <mxGeometry x="400" y="390" width="10" height="140" as="geometry" />
        </mxCell>
        <mxCell id="-a6vra3BTojGLcCyPydO-20" value="" style="endArrow=none;html=1;rounded=0;entryX=0.8;entryY=0.85;entryDx=0;entryDy=0;entryPerimeter=0;" parent="1" source="-a6vra3BTojGLcCyPydO-21" target="-a6vra3BTojGLcCyPydO-11" edge="1">
          <mxGeometry width="50" height="50" relative="1" as="geometry">
            <mxPoint x="210" y="530" as="sourcePoint" />
            <mxPoint x="250" y="480" as="targetPoint" />
          </mxGeometry>
        </mxCell>
        <mxCell id="-a6vra3BTojGLcCyPydO-23" value="" style="endArrow=none;html=1;rounded=0;entryX=0;entryY=0.5;entryDx=0;entryDy=0;" parent="1" target="-a6vra3BTojGLcCyPydO-21" edge="1">
          <mxGeometry width="50" height="50" relative="1" as="geometry">
            <mxPoint x="210" y="530" as="sourcePoint" />
            <mxPoint x="360" y="530" as="targetPoint" />
          </mxGeometry>
        </mxCell>
        <mxCell id="-a6vra3BTojGLcCyPydO-21" value="" style="ellipse;whiteSpace=wrap;html=1;" parent="1" vertex="1">
          <mxGeometry x="340" y="525" width="10" height="10" as="geometry" />
        </mxCell>
        <mxCell id="-a6vra3BTojGLcCyPydO-24" value="" style="endArrow=none;dashed=1;html=1;dashPattern=1 3;strokeWidth=2;rounded=0;" parent="1" edge="1">
          <mxGeometry width="50" height="50" relative="1" as="geometry">
            <mxPoint x="200" y="570" as="sourcePoint" />
            <mxPoint x="200" y="350" as="targetPoint" />
          </mxGeometry>
        </mxCell>
        <mxCell id="-a6vra3BTojGLcCyPydO-25" value="" style="endArrow=none;dashed=1;html=1;dashPattern=1 3;strokeWidth=2;rounded=0;" parent="1" edge="1">
          <mxGeometry width="50" height="50" relative="1" as="geometry">
            <mxPoint x="369.31" y="570" as="sourcePoint" />
            <mxPoint x="369.31" y="350" as="targetPoint" />
          </mxGeometry>
        </mxCell>
        <mxCell id="-a6vra3BTojGLcCyPydO-26" value="" style="rounded=0;whiteSpace=wrap;html=1;" parent="1" vertex="1">
          <mxGeometry x="40" y="600" width="400" height="200" as="geometry" />
        </mxCell>
        <mxCell id="-a6vra3BTojGLcCyPydO-27" value="" style="whiteSpace=wrap;html=1;aspect=fixed;" parent="1" vertex="1">
          <mxGeometry x="60" y="630" width="110" height="110" as="geometry" />
        </mxCell>
        <mxCell id="-a6vra3BTojGLcCyPydO-28" value="" style="rounded=0;whiteSpace=wrap;html=1;" parent="1" vertex="1">
          <mxGeometry x="190" y="630" width="80" height="20" as="geometry" />
        </mxCell>
        <mxCell id="-a6vra3BTojGLcCyPydO-29" value="" style="rounded=0;whiteSpace=wrap;html=1;" parent="1" vertex="1">
          <mxGeometry x="190" y="670" width="170" height="20" as="geometry" />
        </mxCell>
        <mxCell id="-a6vra3BTojGLcCyPydO-30" value="" style="rounded=0;whiteSpace=wrap;html=1;" parent="1" vertex="1">
          <mxGeometry x="190" y="720" width="30" height="20" as="geometry" />
        </mxCell>
        <mxCell id="-a6vra3BTojGLcCyPydO-31" value="" style="rounded=0;whiteSpace=wrap;html=1;" parent="1" vertex="1">
          <mxGeometry x="260" y="720" width="30" height="20" as="geometry" />
        </mxCell>
        <mxCell id="-a6vra3BTojGLcCyPydO-32" value="" style="rounded=0;whiteSpace=wrap;html=1;" parent="1" vertex="1">
          <mxGeometry x="330" y="720" width="30" height="20" as="geometry" />
        </mxCell>
        <mxCell id="-a6vra3BTojGLcCyPydO-33" value="" style="rounded=0;whiteSpace=wrap;html=1;" parent="1" vertex="1">
          <mxGeometry x="400" y="630" width="10" height="110" as="geometry" />
        </mxCell>
        <mxCell id="-a6vra3BTojGLcCyPydO-34" value="" style="rounded=0;whiteSpace=wrap;html=1;fillColor=#FFFFFF;" parent="1" vertex="1">
          <mxGeometry x="392.5" y="638" width="25" height="4" as="geometry" />
        </mxCell>
        <mxCell id="-a6vra3BTojGLcCyPydO-35" value="" style="endArrow=none;html=1;rounded=0;entryX=0.925;entryY=0.85;entryDx=0;entryDy=0;entryPerimeter=0;" parent="1" source="-a6vra3BTojGLcCyPydO-37" target="-a6vra3BTojGLcCyPydO-26" edge="1">
          <mxGeometry width="50" height="50" relative="1" as="geometry">
            <mxPoint x="210" y="770" as="sourcePoint" />
            <mxPoint x="250" y="720" as="targetPoint" />
          </mxGeometry>
        </mxCell>
        <mxCell id="-a6vra3BTojGLcCyPydO-36" value="" style="endArrow=none;html=1;rounded=0;entryX=0;entryY=0.5;entryDx=0;entryDy=0;" parent="1" target="-a6vra3BTojGLcCyPydO-37" edge="1">
          <mxGeometry width="50" height="50" relative="1" as="geometry">
            <mxPoint x="62" y="772" as="sourcePoint" />
            <mxPoint x="360" y="770" as="targetPoint" />
          </mxGeometry>
        </mxCell>
        <mxCell id="-a6vra3BTojGLcCyPydO-37" value="" style="ellipse;whiteSpace=wrap;html=1;" parent="1" vertex="1">
          <mxGeometry x="340" y="765" width="10" height="10" as="geometry" />
        </mxCell>
        <mxCell id="-a6vra3BTojGLcCyPydO-41" value="" style="rounded=0;whiteSpace=wrap;html=1;fillColor=#FFFFFF;" parent="1" vertex="1">
          <mxGeometry x="392.5" y="400" width="25" height="4" as="geometry" />
        </mxCell>
        <mxCell id="-a6vra3BTojGLcCyPydO-42" value="" style="rounded=0;whiteSpace=wrap;html=1;fillColor=#FFFFFF;" parent="1" vertex="1">
          <mxGeometry x="392.5" y="160" width="25" height="4" as="geometry" />
        </mxCell>
        <mxCell id="-a6vra3BTojGLcCyPydO-43" value="" style="rounded=0;whiteSpace=wrap;html=1;" parent="1" vertex="1">
          <mxGeometry x="480" y="600" width="400" height="200" as="geometry" />
        </mxCell>
        <mxCell id="-a6vra3BTojGLcCyPydO-44" value="" style="whiteSpace=wrap;html=1;aspect=fixed;" parent="1" vertex="1">
          <mxGeometry x="500" y="630" width="110" height="110" as="geometry" />
        </mxCell>
        <mxCell id="-a6vra3BTojGLcCyPydO-45" value="" style="rounded=0;whiteSpace=wrap;html=1;" parent="1" vertex="1">
          <mxGeometry x="630" y="630" width="80" height="20" as="geometry" />
        </mxCell>
        <mxCell id="-a6vra3BTojGLcCyPydO-46" value="" style="rounded=0;whiteSpace=wrap;html=1;" parent="1" vertex="1">
          <mxGeometry x="630" y="670" width="170" height="20" as="geometry" />
        </mxCell>
        <mxCell id="-a6vra3BTojGLcCyPydO-47" value="" style="rounded=0;whiteSpace=wrap;html=1;" parent="1" vertex="1">
          <mxGeometry x="630" y="720" width="30" height="20" as="geometry" />
        </mxCell>
        <mxCell id="-a6vra3BTojGLcCyPydO-48" value="" style="rounded=0;whiteSpace=wrap;html=1;" parent="1" vertex="1">
          <mxGeometry x="700" y="720" width="30" height="20" as="geometry" />
        </mxCell>
        <mxCell id="-a6vra3BTojGLcCyPydO-49" value="" style="rounded=0;whiteSpace=wrap;html=1;" parent="1" vertex="1">
          <mxGeometry x="770" y="720" width="30" height="20" as="geometry" />
        </mxCell>
        <mxCell id="-a6vra3BTojGLcCyPydO-50" value="" style="rounded=0;whiteSpace=wrap;html=1;" parent="1" vertex="1">
          <mxGeometry x="840" y="620" width="10" height="160" as="geometry" />
        </mxCell>
        <mxCell id="-a6vra3BTojGLcCyPydO-51" value="" style="rounded=0;whiteSpace=wrap;html=1;fillColor=#FFFFFF;" parent="1" vertex="1">
          <mxGeometry x="832.5" y="638" width="25" height="4" as="geometry" />
        </mxCell>
        <mxCell id="-a6vra3BTojGLcCyPydO-52" value="" style="endArrow=none;html=1;rounded=0;" parent="1" source="-a6vra3BTojGLcCyPydO-54" edge="1">
          <mxGeometry width="50" height="50" relative="1" as="geometry">
            <mxPoint x="650" y="770" as="sourcePoint" />
            <mxPoint x="800" y="770" as="targetPoint" />
          </mxGeometry>
        </mxCell>
        <mxCell id="-a6vra3BTojGLcCyPydO-53" value="" style="endArrow=none;html=1;rounded=0;entryX=0;entryY=0.5;entryDx=0;entryDy=0;" parent="1" target="-a6vra3BTojGLcCyPydO-54" edge="1">
          <mxGeometry width="50" height="50" relative="1" as="geometry">
            <mxPoint x="502" y="772" as="sourcePoint" />
            <mxPoint x="800" y="770" as="targetPoint" />
          </mxGeometry>
        </mxCell>
        <mxCell id="-a6vra3BTojGLcCyPydO-54" value="" style="ellipse;whiteSpace=wrap;html=1;" parent="1" vertex="1">
          <mxGeometry x="750" y="765" width="10" height="10" as="geometry" />
        </mxCell>
        <mxCell id="-a6vra3BTojGLcCyPydO-55" value="" style="endArrow=none;dashed=1;html=1;dashPattern=1 3;strokeWidth=2;rounded=0;" parent="1" edge="1">
          <mxGeometry width="50" height="50" relative="1" as="geometry">
            <mxPoint x="620" y="810" as="sourcePoint" />
            <mxPoint x="620" y="590" as="targetPoint" />
          </mxGeometry>
        </mxCell>
        <mxCell id="-a6vra3BTojGLcCyPydO-56" value="" style="endArrow=none;dashed=1;html=1;dashPattern=1 3;strokeWidth=2;rounded=0;" parent="1" edge="1">
          <mxGeometry width="50" height="50" relative="1" as="geometry">
            <mxPoint x="810" y="810" as="sourcePoint" />
            <mxPoint x="810" y="590" as="targetPoint" />
          </mxGeometry>
        </mxCell>
        <mxCell id="-a6vra3BTojGLcCyPydO-59" value="" style="rounded=0;whiteSpace=wrap;html=1;" parent="1" vertex="1">
          <mxGeometry x="480" y="360" width="400" height="200" as="geometry" />
        </mxCell>
        <mxCell id="-a6vra3BTojGLcCyPydO-60" value="" style="whiteSpace=wrap;html=1;aspect=fixed;" parent="1" vertex="1">
          <mxGeometry x="500" y="390" width="110" height="110" as="geometry" />
        </mxCell>
        <mxCell id="-a6vra3BTojGLcCyPydO-63" value="Rewind" style="rounded=0;whiteSpace=wrap;html=1;" parent="1" vertex="1">
          <mxGeometry x="630" y="480" width="50" height="20" as="geometry" />
        </mxCell>
        <mxCell id="-a6vra3BTojGLcCyPydO-64" value="Play" style="rounded=0;whiteSpace=wrap;html=1;" parent="1" vertex="1">
          <mxGeometry x="690" y="480" width="50" height="20" as="geometry" />
        </mxCell>
        <mxCell id="-a6vra3BTojGLcCyPydO-65" value="Pause" style="rounded=0;whiteSpace=wrap;html=1;" parent="1" vertex="1">
          <mxGeometry x="750" y="480" width="50" height="20" as="geometry" />
        </mxCell>
        <mxCell id="-a6vra3BTojGLcCyPydO-66" value="" style="rounded=0;whiteSpace=wrap;html=1;" parent="1" vertex="1">
          <mxGeometry x="840" y="380" width="10" height="160" as="geometry" />
        </mxCell>
        <mxCell id="-a6vra3BTojGLcCyPydO-67" value="" style="rounded=0;whiteSpace=wrap;html=1;fillColor=#FFFFFF;" parent="1" vertex="1">
          <mxGeometry x="832.5" y="398" width="25" height="4" as="geometry" />
        </mxCell>
        <mxCell id="-a6vra3BTojGLcCyPydO-68" value="" style="endArrow=none;html=1;rounded=0;" parent="1" source="-a6vra3BTojGLcCyPydO-70" edge="1">
          <mxGeometry width="50" height="50" relative="1" as="geometry">
            <mxPoint x="650" y="530" as="sourcePoint" />
            <mxPoint x="800" y="530" as="targetPoint" />
          </mxGeometry>
        </mxCell>
        <mxCell id="-a6vra3BTojGLcCyPydO-69" value="" style="endArrow=none;html=1;rounded=0;entryX=0;entryY=0.5;entryDx=0;entryDy=0;" parent="1" target="-a6vra3BTojGLcCyPydO-70" edge="1">
          <mxGeometry width="50" height="50" relative="1" as="geometry">
            <mxPoint x="502" y="532" as="sourcePoint" />
            <mxPoint x="800" y="530" as="targetPoint" />
          </mxGeometry>
        </mxCell>
        <mxCell id="-a6vra3BTojGLcCyPydO-70" value="" style="ellipse;whiteSpace=wrap;html=1;" parent="1" vertex="1">
          <mxGeometry x="602" y="526" width="10" height="10" as="geometry" />
        </mxCell>
        <mxCell id="-a6vra3BTojGLcCyPydO-71" value="" style="endArrow=none;dashed=1;html=1;dashPattern=1 3;strokeWidth=2;rounded=0;" parent="1" edge="1">
          <mxGeometry width="50" height="50" relative="1" as="geometry">
            <mxPoint x="620" y="570" as="sourcePoint" />
            <mxPoint x="620" y="350" as="targetPoint" />
          </mxGeometry>
        </mxCell>
        <mxCell id="-a6vra3BTojGLcCyPydO-72" value="" style="endArrow=none;dashed=1;html=1;dashPattern=1 3;strokeWidth=2;rounded=0;" parent="1" edge="1">
          <mxGeometry width="50" height="50" relative="1" as="geometry">
            <mxPoint x="810" y="570" as="sourcePoint" />
            <mxPoint x="810" y="350" as="targetPoint" />
          </mxGeometry>
        </mxCell>
        <mxCell id="-a6vra3BTojGLcCyPydO-73" value="OutRight" style="text;html=1;align=center;verticalAlign=middle;whiteSpace=wrap;rounded=0;fontSize=24;" parent="1" vertex="1">
          <mxGeometry x="630" y="384" width="170" height="30" as="geometry" />
        </mxCell>
        <mxCell id="-a6vra3BTojGLcCyPydO-74" value="Wild Party" style="text;html=1;align=left;verticalAlign=middle;whiteSpace=wrap;rounded=0;fontSize=15;" parent="1" vertex="1">
          <mxGeometry x="630" y="414" width="170" height="30" as="geometry" />
        </mxCell>
        <mxCell id="-a6vra3BTojGLcCyPydO-94" value="*bike*" style="text;html=1;align=center;verticalAlign=middle;whiteSpace=wrap;rounded=0;rotation=-30;fontSize=17;" parent="1" vertex="1">
          <mxGeometry x="540" y="450" width="60" height="30" as="geometry" />
        </mxCell>
        <mxCell id="-a6vra3BTojGLcCyPydO-95" value="2:42" style="text;html=1;align=center;verticalAlign=middle;whiteSpace=wrap;rounded=0;" parent="1" vertex="1">
          <mxGeometry x="780" y="510" width="30" height="20" as="geometry" />
        </mxCell>
        <mxCell id="-a6vra3BTojGLcCyPydO-96" value="0:55" style="text;html=1;align=center;verticalAlign=middle;whiteSpace=wrap;rounded=0;" parent="1" vertex="1">
          <mxGeometry x="500" y="510" width="30" height="20" as="geometry" />
        </mxCell>
      </root>
    </mxGraphModel>
  </diagram>
  <diagram id="FGgp_rYThXIFCupNpxVy" name="Mindmap">
    <mxGraphModel dx="3597" dy="1923" grid="1" gridSize="10" guides="1" tooltips="1" connect="1" arrows="1" fold="1" page="1" pageScale="1" pageWidth="1169" pageHeight="827" math="0" shadow="0">
      <root>
        <mxCell id="0" />
        <mxCell id="1" parent="0" />
        <mxCell id="oOm5zM0nBoOnpF1ARKi1-18" value="" style="group;movable=1;resizable=1;rotatable=1;deletable=1;editable=1;locked=0;connectable=1;" vertex="1" connectable="0" parent="1">
          <mxGeometry x="40" y="120" width="400" height="200" as="geometry" />
        </mxCell>
        <mxCell id="oOm5zM0nBoOnpF1ARKi1-1" value="" style="rounded=0;whiteSpace=wrap;html=1;" vertex="1" parent="oOm5zM0nBoOnpF1ARKi1-18">
          <mxGeometry width="400" height="200" as="geometry" />
        </mxCell>
        <mxCell id="oOm5zM0nBoOnpF1ARKi1-2" value="" style="whiteSpace=wrap;html=1;aspect=fixed;" vertex="1" parent="oOm5zM0nBoOnpF1ARKi1-18">
          <mxGeometry x="20" y="30" width="110" height="110" as="geometry" />
        </mxCell>
        <mxCell id="oOm5zM0nBoOnpF1ARKi1-3" value="Rewind" style="rounded=0;whiteSpace=wrap;html=1;" vertex="1" parent="oOm5zM0nBoOnpF1ARKi1-18">
          <mxGeometry x="150" y="120" width="50" height="20" as="geometry" />
        </mxCell>
        <mxCell id="oOm5zM0nBoOnpF1ARKi1-4" value="Play" style="rounded=0;whiteSpace=wrap;html=1;" vertex="1" parent="oOm5zM0nBoOnpF1ARKi1-18">
          <mxGeometry x="210" y="120" width="50" height="20" as="geometry" />
        </mxCell>
        <mxCell id="oOm5zM0nBoOnpF1ARKi1-5" value="Pause" style="rounded=0;whiteSpace=wrap;html=1;" vertex="1" parent="oOm5zM0nBoOnpF1ARKi1-18">
          <mxGeometry x="270" y="120" width="50" height="20" as="geometry" />
        </mxCell>
        <mxCell id="oOm5zM0nBoOnpF1ARKi1-6" value="" style="rounded=0;whiteSpace=wrap;html=1;" vertex="1" parent="oOm5zM0nBoOnpF1ARKi1-18">
          <mxGeometry x="360" y="20" width="10" height="160" as="geometry" />
        </mxCell>
        <mxCell id="oOm5zM0nBoOnpF1ARKi1-7" value="" style="rounded=0;whiteSpace=wrap;html=1;fillColor=#FFFFFF;" vertex="1" parent="oOm5zM0nBoOnpF1ARKi1-18">
          <mxGeometry x="352.5" y="38" width="25" height="4" as="geometry" />
        </mxCell>
        <mxCell id="oOm5zM0nBoOnpF1ARKi1-8" value="" style="endArrow=none;html=1;rounded=0;" edge="1" parent="oOm5zM0nBoOnpF1ARKi1-18" source="oOm5zM0nBoOnpF1ARKi1-10">
          <mxGeometry width="50" height="50" relative="1" as="geometry">
            <mxPoint x="170" y="170" as="sourcePoint" />
            <mxPoint x="320" y="170" as="targetPoint" />
          </mxGeometry>
        </mxCell>
        <mxCell id="oOm5zM0nBoOnpF1ARKi1-9" value="" style="endArrow=none;html=1;rounded=0;entryX=0;entryY=0.5;entryDx=0;entryDy=0;" edge="1" parent="oOm5zM0nBoOnpF1ARKi1-18" target="oOm5zM0nBoOnpF1ARKi1-10">
          <mxGeometry width="50" height="50" relative="1" as="geometry">
            <mxPoint x="22" y="172" as="sourcePoint" />
            <mxPoint x="320" y="170" as="targetPoint" />
          </mxGeometry>
        </mxCell>
        <mxCell id="oOm5zM0nBoOnpF1ARKi1-10" value="" style="ellipse;whiteSpace=wrap;html=1;" vertex="1" parent="oOm5zM0nBoOnpF1ARKi1-18">
          <mxGeometry x="122" y="166" width="10" height="10" as="geometry" />
        </mxCell>
        <mxCell id="oOm5zM0nBoOnpF1ARKi1-13" value="OutRight" style="text;html=1;align=center;verticalAlign=middle;whiteSpace=wrap;rounded=0;fontSize=24;" vertex="1" parent="oOm5zM0nBoOnpF1ARKi1-18">
          <mxGeometry x="150" y="24" width="170" height="30" as="geometry" />
        </mxCell>
        <mxCell id="oOm5zM0nBoOnpF1ARKi1-14" value="Wild Party" style="text;html=1;align=left;verticalAlign=middle;whiteSpace=wrap;rounded=0;fontSize=15;" vertex="1" parent="oOm5zM0nBoOnpF1ARKi1-18">
          <mxGeometry x="150" y="54" width="170" height="30" as="geometry" />
        </mxCell>
        <mxCell id="oOm5zM0nBoOnpF1ARKi1-15" value="*bike*" style="text;html=1;align=center;verticalAlign=middle;whiteSpace=wrap;rounded=0;rotation=-30;fontSize=17;" vertex="1" parent="oOm5zM0nBoOnpF1ARKi1-18">
          <mxGeometry x="60" y="90" width="60" height="30" as="geometry" />
        </mxCell>
        <mxCell id="oOm5zM0nBoOnpF1ARKi1-16" value="2:42" style="text;html=1;align=center;verticalAlign=middle;whiteSpace=wrap;rounded=0;" vertex="1" parent="oOm5zM0nBoOnpF1ARKi1-18">
          <mxGeometry x="300" y="150" width="30" height="20" as="geometry" />
        </mxCell>
        <mxCell id="oOm5zM0nBoOnpF1ARKi1-17" value="0:55" style="text;html=1;align=center;verticalAlign=middle;whiteSpace=wrap;rounded=0;" vertex="1" parent="oOm5zM0nBoOnpF1ARKi1-18">
          <mxGeometry x="20" y="150" width="30" height="20" as="geometry" />
        </mxCell>
        <mxCell id="oOm5zM0nBoOnpF1ARKi1-20" value="[Player]" style="text;html=1;align=center;verticalAlign=middle;whiteSpace=wrap;rounded=0;fontStyle=1;fontSize=26;" vertex="1" parent="1">
          <mxGeometry x="150" y="70" width="270" height="30" as="geometry" />
        </mxCell>
        <mxCell id="oOm5zM0nBoOnpF1ARKi1-21" value="" style="strokeWidth=2;html=1;shape=mxgraph.flowchart.annotation_2;align=left;labelPosition=right;pointerEvents=1;" vertex="1" parent="1">
          <mxGeometry x="90" y="400" width="60" height="200" as="geometry" />
        </mxCell>
        <mxCell id="oOm5zM0nBoOnpF1ARKi1-22" value="songs&amp;nbsp; &amp;nbsp;" style="strokeWidth=2;html=1;shape=mxgraph.flowchart.multi-document;whiteSpace=wrap;" vertex="1" parent="1">
          <mxGeometry x="130" y="530" width="88" height="60" as="geometry" />
        </mxCell>
        <mxCell id="oOm5zM0nBoOnpF1ARKi1-25" value="" style="group" vertex="1" connectable="0" parent="1">
          <mxGeometry x="130" y="414" width="90.61000000000001" height="46" as="geometry" />
        </mxCell>
        <mxCell id="oOm5zM0nBoOnpF1ARKi1-23" value="" style="verticalLabelPosition=bottom;verticalAlign=middle;html=1;shape=card;whiteSpace=wrap;size=20;arcSize=12;" vertex="1" parent="oOm5zM0nBoOnpF1ARKi1-25">
          <mxGeometry width="90.61" height="46" as="geometry" />
        </mxCell>
        <mxCell id="oOm5zM0nBoOnpF1ARKi1-24" value="&lt;font style=&quot;font-size: 11px;&quot;&gt;Mix Metadata&amp;nbsp;&lt;/font&gt;&lt;div style=&quot;font-size: 11px;&quot;&gt;&lt;font style=&quot;font-size: 11px;&quot;&gt;.MPData&lt;/font&gt;&lt;/div&gt;" style="text;html=1;align=center;verticalAlign=middle;whiteSpace=wrap;rounded=0;spacing=1;" vertex="1" parent="oOm5zM0nBoOnpF1ARKi1-25">
          <mxGeometry x="20" y="8" width="70" height="30" as="geometry" />
        </mxCell>
        <mxCell id="oOm5zM0nBoOnpF1ARKi1-95" value="" style="ellipse;whiteSpace=wrap;html=1;fillColor=#60a917;fontColor=#ffffff;strokeColor=#2D7600;" vertex="1" parent="oOm5zM0nBoOnpF1ARKi1-25">
          <mxGeometry y="26" width="20" height="20" as="geometry" />
        </mxCell>
        <mxCell id="oOm5zM0nBoOnpF1ARKi1-102" value="" style="verticalLabelPosition=bottom;verticalAlign=middle;html=1;shape=card;whiteSpace=wrap;size=20;arcSize=12;fillColor=none;" vertex="1" parent="oOm5zM0nBoOnpF1ARKi1-25">
          <mxGeometry width="90.61" height="46" as="geometry" />
        </mxCell>
        <mxCell id="oOm5zM0nBoOnpF1ARKi1-26" value="" style="group" vertex="1" connectable="0" parent="1">
          <mxGeometry x="130" y="470" width="90.61000000000001" height="46" as="geometry" />
        </mxCell>
        <mxCell id="oOm5zM0nBoOnpF1ARKi1-27" value="" style="verticalLabelPosition=bottom;verticalAlign=middle;html=1;shape=card;whiteSpace=wrap;size=20;arcSize=12;" vertex="1" parent="oOm5zM0nBoOnpF1ARKi1-26">
          <mxGeometry width="90.61" height="46" as="geometry" />
        </mxCell>
        <mxCell id="oOm5zM0nBoOnpF1ARKi1-28" value="Visuals file&lt;div&gt;.MPView&lt;/div&gt;" style="text;html=1;align=center;verticalAlign=middle;whiteSpace=wrap;rounded=0;" vertex="1" parent="oOm5zM0nBoOnpF1ARKi1-26">
          <mxGeometry x="20" y="8" width="70" height="30" as="geometry" />
        </mxCell>
        <mxCell id="oOm5zM0nBoOnpF1ARKi1-92" value="" style="ellipse;whiteSpace=wrap;html=1;fillColor=#1ba1e2;fontColor=#ffffff;strokeColor=#006EAF;" vertex="1" parent="oOm5zM0nBoOnpF1ARKi1-26">
          <mxGeometry y="26" width="20" height="20" as="geometry" />
        </mxCell>
        <mxCell id="oOm5zM0nBoOnpF1ARKi1-93" value="" style="verticalLabelPosition=bottom;verticalAlign=middle;html=1;shape=card;whiteSpace=wrap;size=20;arcSize=12;fillColor=none;" vertex="1" parent="oOm5zM0nBoOnpF1ARKi1-26">
          <mxGeometry width="90.61" height="46" as="geometry" />
        </mxCell>
        <mxCell id="oOm5zM0nBoOnpF1ARKi1-29" value="MixFile" style="text;html=1;align=center;verticalAlign=middle;whiteSpace=wrap;rounded=0;" vertex="1" parent="1">
          <mxGeometry x="30" y="486" width="60" height="30" as="geometry" />
        </mxCell>
        <mxCell id="oOm5zM0nBoOnpF1ARKi1-31" value="" style="curved=1;endArrow=classic;html=1;rounded=0;exitX=0.5;exitY=0;exitDx=0;exitDy=0;strokeWidth=3;" edge="1" parent="1" source="oOm5zM0nBoOnpF1ARKi1-29">
          <mxGeometry width="50" height="50" relative="1" as="geometry">
            <mxPoint x="50" y="439" as="sourcePoint" />
            <mxPoint x="70" y="330" as="targetPoint" />
            <Array as="points">
              <mxPoint x="30" y="430" />
              <mxPoint x="40" y="360" />
            </Array>
          </mxGeometry>
        </mxCell>
        <mxCell id="oOm5zM0nBoOnpF1ARKi1-32" value="" style="curved=1;endArrow=classic;html=1;rounded=0;strokeWidth=3;" edge="1" parent="1">
          <mxGeometry width="50" height="50" relative="1" as="geometry">
            <mxPoint x="240" y="500" as="sourcePoint" />
            <mxPoint x="330" y="730" as="targetPoint" />
            <Array as="points">
              <mxPoint x="280" y="510" />
              <mxPoint x="260" y="700" />
            </Array>
          </mxGeometry>
        </mxCell>
        <mxCell id="oOm5zM0nBoOnpF1ARKi1-33" value="" style="curved=1;endArrow=classic;html=1;rounded=0;strokeWidth=3;" edge="1" parent="1">
          <mxGeometry width="50" height="50" relative="1" as="geometry">
            <mxPoint x="240" y="440" as="sourcePoint" />
            <mxPoint x="680" y="220" as="targetPoint" />
            <Array as="points">
              <mxPoint x="470" y="440" />
              <mxPoint x="530" y="250" />
            </Array>
          </mxGeometry>
        </mxCell>
        <mxCell id="oOm5zM0nBoOnpF1ARKi1-34" value="" style="strokeWidth=2;html=1;shape=mxgraph.flowchart.annotation_2;align=left;labelPosition=right;pointerEvents=1;" vertex="1" parent="1">
          <mxGeometry x="340" y="640" width="60" height="190" as="geometry" />
        </mxCell>
        <mxCell id="oOm5zM0nBoOnpF1ARKi1-35" value="" style="strokeWidth=2;html=1;shape=mxgraph.flowchart.annotation_2;align=left;labelPosition=right;pointerEvents=1;" vertex="1" parent="1">
          <mxGeometry x="690.61" y="124" width="60" height="190" as="geometry" />
        </mxCell>
        <mxCell id="oOm5zM0nBoOnpF1ARKi1-37" value="" style="group" vertex="1" connectable="0" parent="1">
          <mxGeometry x="380" y="650" width="90.61000000000001" height="46" as="geometry" />
        </mxCell>
        <mxCell id="oOm5zM0nBoOnpF1ARKi1-38" value="" style="verticalLabelPosition=bottom;verticalAlign=middle;html=1;shape=card;whiteSpace=wrap;size=20;arcSize=12;" vertex="1" parent="oOm5zM0nBoOnpF1ARKi1-37">
          <mxGeometry width="90.61" height="46" as="geometry" />
        </mxCell>
        <mxCell id="oOm5zM0nBoOnpF1ARKi1-39" value="Colours for each control" style="text;html=1;align=center;verticalAlign=middle;whiteSpace=wrap;rounded=0;" vertex="1" parent="oOm5zM0nBoOnpF1ARKi1-37">
          <mxGeometry x="20" y="8" width="70" height="30" as="geometry" />
        </mxCell>
        <mxCell id="oOm5zM0nBoOnpF1ARKi1-104" value="" style="ellipse;whiteSpace=wrap;html=1;fillColor=#1ba1e2;fontColor=#ffffff;strokeColor=#006EAF;" vertex="1" parent="oOm5zM0nBoOnpF1ARKi1-37">
          <mxGeometry y="26" width="20" height="20" as="geometry" />
        </mxCell>
        <mxCell id="oOm5zM0nBoOnpF1ARKi1-115" value="" style="verticalLabelPosition=bottom;verticalAlign=middle;html=1;shape=card;whiteSpace=wrap;size=20;arcSize=12;fillColor=none;" vertex="1" parent="oOm5zM0nBoOnpF1ARKi1-37">
          <mxGeometry width="90.61" height="46" as="geometry" />
        </mxCell>
        <mxCell id="oOm5zM0nBoOnpF1ARKi1-40" value="" style="group" vertex="1" connectable="0" parent="1">
          <mxGeometry x="380" y="710" width="90.61000000000001" height="46" as="geometry" />
        </mxCell>
        <mxCell id="oOm5zM0nBoOnpF1ARKi1-41" value="" style="verticalLabelPosition=bottom;verticalAlign=middle;html=1;shape=card;whiteSpace=wrap;size=20;arcSize=12;" vertex="1" parent="oOm5zM0nBoOnpF1ARKi1-40">
          <mxGeometry width="90.61" height="46" as="geometry" />
        </mxCell>
        <mxCell id="oOm5zM0nBoOnpF1ARKi1-42" value="Background images" style="text;html=1;align=center;verticalAlign=middle;whiteSpace=wrap;rounded=0;" vertex="1" parent="oOm5zM0nBoOnpF1ARKi1-40">
          <mxGeometry x="20" y="8" width="70" height="30" as="geometry" />
        </mxCell>
        <mxCell id="oOm5zM0nBoOnpF1ARKi1-112" value="" style="ellipse;whiteSpace=wrap;html=1;fillColor=#6a00ff;fontColor=#ffffff;strokeColor=#3700CC;" vertex="1" parent="oOm5zM0nBoOnpF1ARKi1-40">
          <mxGeometry y="26" width="20" height="20" as="geometry" />
        </mxCell>
        <mxCell id="oOm5zM0nBoOnpF1ARKi1-116" value="" style="verticalLabelPosition=bottom;verticalAlign=middle;html=1;shape=card;whiteSpace=wrap;size=20;arcSize=12;fillColor=none;" vertex="1" parent="oOm5zM0nBoOnpF1ARKi1-40">
          <mxGeometry x="5.551115123125783e-16" width="90.61" height="46" as="geometry" />
        </mxCell>
        <mxCell id="oOm5zM0nBoOnpF1ARKi1-43" value="" style="group" vertex="1" connectable="0" parent="1">
          <mxGeometry x="380" y="770" width="90.61000000000001" height="46" as="geometry" />
        </mxCell>
        <mxCell id="oOm5zM0nBoOnpF1ARKi1-44" value="" style="verticalLabelPosition=bottom;verticalAlign=middle;html=1;shape=card;whiteSpace=wrap;size=20;arcSize=12;" vertex="1" parent="oOm5zM0nBoOnpF1ARKi1-43">
          <mxGeometry width="90.61" height="46" as="geometry" />
        </mxCell>
        <mxCell id="oOm5zM0nBoOnpF1ARKi1-45" value="Custom text for controls" style="text;html=1;align=center;verticalAlign=middle;whiteSpace=wrap;rounded=0;" vertex="1" parent="oOm5zM0nBoOnpF1ARKi1-43">
          <mxGeometry x="20" y="8" width="70" height="30" as="geometry" />
        </mxCell>
        <mxCell id="oOm5zM0nBoOnpF1ARKi1-106" value="" style="ellipse;whiteSpace=wrap;html=1;fillColor=#1ba1e2;fontColor=#ffffff;strokeColor=#006EAF;" vertex="1" parent="oOm5zM0nBoOnpF1ARKi1-43">
          <mxGeometry y="26" width="20" height="20" as="geometry" />
        </mxCell>
        <mxCell id="oOm5zM0nBoOnpF1ARKi1-117" value="" style="verticalLabelPosition=bottom;verticalAlign=middle;html=1;shape=card;whiteSpace=wrap;size=20;arcSize=12;fillColor=none;" vertex="1" parent="oOm5zM0nBoOnpF1ARKi1-43">
          <mxGeometry width="90.61" height="46" as="geometry" />
        </mxCell>
        <mxCell id="oOm5zM0nBoOnpF1ARKi1-46" value="" style="group" vertex="1" connectable="0" parent="1">
          <mxGeometry x="480" y="650" width="90.61000000000001" height="46" as="geometry" />
        </mxCell>
        <mxCell id="oOm5zM0nBoOnpF1ARKi1-47" value="" style="verticalLabelPosition=bottom;verticalAlign=middle;html=1;shape=card;whiteSpace=wrap;size=20;arcSize=12;" vertex="1" parent="oOm5zM0nBoOnpF1ARKi1-46">
          <mxGeometry width="90.61" height="46" as="geometry" />
        </mxCell>
        <mxCell id="oOm5zM0nBoOnpF1ARKi1-48" value="Fonts?" style="text;html=1;align=center;verticalAlign=middle;whiteSpace=wrap;rounded=0;" vertex="1" parent="oOm5zM0nBoOnpF1ARKi1-46">
          <mxGeometry x="20" y="8" width="70.61" height="30" as="geometry" />
        </mxCell>
        <mxCell id="oOm5zM0nBoOnpF1ARKi1-103" value="" style="ellipse;whiteSpace=wrap;html=1;fillColor=#6a00ff;fontColor=#ffffff;strokeColor=#3700CC;" vertex="1" parent="oOm5zM0nBoOnpF1ARKi1-46">
          <mxGeometry y="26" width="20" height="20" as="geometry" />
        </mxCell>
        <mxCell id="oOm5zM0nBoOnpF1ARKi1-114" value="" style="verticalLabelPosition=bottom;verticalAlign=middle;html=1;shape=card;whiteSpace=wrap;size=20;arcSize=12;fillColor=none;" vertex="1" parent="oOm5zM0nBoOnpF1ARKi1-46">
          <mxGeometry width="90.61" height="46" as="geometry" />
        </mxCell>
        <mxCell id="oOm5zM0nBoOnpF1ARKi1-134" value="" style="curved=1;endArrow=classic;html=1;rounded=0;strokeWidth=3;" edge="1" parent="oOm5zM0nBoOnpF1ARKi1-46">
          <mxGeometry width="50" height="50" relative="1" as="geometry">
            <mxPoint x="-49.69" as="sourcePoint" />
            <mxPoint x="-10" y="-40" as="targetPoint" />
            <Array as="points">
              <mxPoint x="-50" y="-20" />
              <mxPoint x="-30" y="-40" />
            </Array>
          </mxGeometry>
        </mxCell>
        <mxCell id="oOm5zM0nBoOnpF1ARKi1-50" value="" style="group" vertex="1" connectable="0" parent="1">
          <mxGeometry x="480" y="770" width="90.61000000000001" height="46" as="geometry" />
        </mxCell>
        <mxCell id="oOm5zM0nBoOnpF1ARKi1-51" value="" style="verticalLabelPosition=bottom;verticalAlign=middle;html=1;shape=card;whiteSpace=wrap;size=20;arcSize=12;" vertex="1" parent="oOm5zM0nBoOnpF1ARKi1-50">
          <mxGeometry width="90.61" height="46" as="geometry" />
        </mxCell>
        <mxCell id="oOm5zM0nBoOnpF1ARKi1-52" value="Positioning of controls" style="text;html=1;align=center;verticalAlign=middle;whiteSpace=wrap;rounded=0;" vertex="1" parent="oOm5zM0nBoOnpF1ARKi1-50">
          <mxGeometry x="20" y="8" width="70.61" height="30" as="geometry" />
        </mxCell>
        <mxCell id="oOm5zM0nBoOnpF1ARKi1-107" value="" style="ellipse;whiteSpace=wrap;html=1;fillColor=#6a00ff;fontColor=#ffffff;strokeColor=#3700CC;" vertex="1" parent="oOm5zM0nBoOnpF1ARKi1-50">
          <mxGeometry y="26" width="20" height="20" as="geometry" />
        </mxCell>
        <mxCell id="oOm5zM0nBoOnpF1ARKi1-118" value="" style="verticalLabelPosition=bottom;verticalAlign=middle;html=1;shape=card;whiteSpace=wrap;size=20;arcSize=12;fillColor=none;" vertex="1" parent="oOm5zM0nBoOnpF1ARKi1-50">
          <mxGeometry width="90.61" height="46" as="geometry" />
        </mxCell>
        <mxCell id="oOm5zM0nBoOnpF1ARKi1-58" value="" style="group" vertex="1" connectable="0" parent="1">
          <mxGeometry x="730.61" y="134" width="90.61000000000001" height="46" as="geometry" />
        </mxCell>
        <mxCell id="oOm5zM0nBoOnpF1ARKi1-59" value="" style="verticalLabelPosition=bottom;verticalAlign=middle;html=1;shape=card;whiteSpace=wrap;size=20;arcSize=12;" vertex="1" parent="oOm5zM0nBoOnpF1ARKi1-58">
          <mxGeometry width="90.61" height="46" as="geometry" />
        </mxCell>
        <mxCell id="oOm5zM0nBoOnpF1ARKi1-60" value="Mix order" style="text;html=1;align=center;verticalAlign=middle;whiteSpace=wrap;rounded=0;" vertex="1" parent="oOm5zM0nBoOnpF1ARKi1-58">
          <mxGeometry x="20" y="8" width="68" height="30" as="geometry" />
        </mxCell>
        <mxCell id="oOm5zM0nBoOnpF1ARKi1-121" value="" style="ellipse;whiteSpace=wrap;html=1;fillColor=#60a917;fontColor=#ffffff;strokeColor=#2D7600;" vertex="1" parent="oOm5zM0nBoOnpF1ARKi1-58">
          <mxGeometry y="26" width="20" height="20" as="geometry" />
        </mxCell>
        <mxCell id="oOm5zM0nBoOnpF1ARKi1-125" value="" style="verticalLabelPosition=bottom;verticalAlign=middle;html=1;shape=card;whiteSpace=wrap;size=20;arcSize=12;fillColor=none;" vertex="1" parent="oOm5zM0nBoOnpF1ARKi1-58">
          <mxGeometry width="90.61" height="46" as="geometry" />
        </mxCell>
        <mxCell id="oOm5zM0nBoOnpF1ARKi1-62" value="" style="group" vertex="1" connectable="0" parent="1">
          <mxGeometry x="730.61" y="194" width="120.61" height="46" as="geometry" />
        </mxCell>
        <mxCell id="oOm5zM0nBoOnpF1ARKi1-63" value="" style="verticalLabelPosition=bottom;verticalAlign=middle;html=1;shape=card;whiteSpace=wrap;size=20;arcSize=12;" vertex="1" parent="oOm5zM0nBoOnpF1ARKi1-62">
          <mxGeometry width="90.61" height="46" as="geometry" />
        </mxCell>
        <mxCell id="oOm5zM0nBoOnpF1ARKi1-64" value="Mix effects" style="text;html=1;align=center;verticalAlign=middle;whiteSpace=wrap;rounded=0;" vertex="1" parent="oOm5zM0nBoOnpF1ARKi1-62">
          <mxGeometry x="20" y="8" width="68" height="30" as="geometry" />
        </mxCell>
        <mxCell id="oOm5zM0nBoOnpF1ARKi1-122" value="" style="ellipse;whiteSpace=wrap;html=1;fillColor=#6a00ff;fontColor=#ffffff;strokeColor=#3700CC;" vertex="1" parent="oOm5zM0nBoOnpF1ARKi1-62">
          <mxGeometry y="26" width="20" height="20" as="geometry" />
        </mxCell>
        <mxCell id="oOm5zM0nBoOnpF1ARKi1-126" value="" style="verticalLabelPosition=bottom;verticalAlign=middle;html=1;shape=card;whiteSpace=wrap;size=20;arcSize=12;fillColor=none;" vertex="1" parent="oOm5zM0nBoOnpF1ARKi1-62">
          <mxGeometry width="90.61" height="46" as="geometry" />
        </mxCell>
        <mxCell id="oOm5zM0nBoOnpF1ARKi1-68" value="" style="group" vertex="1" connectable="0" parent="1">
          <mxGeometry x="730.61" y="254" width="90.61000000000001" height="46" as="geometry" />
        </mxCell>
        <mxCell id="oOm5zM0nBoOnpF1ARKi1-69" value="" style="verticalLabelPosition=bottom;verticalAlign=middle;html=1;shape=card;whiteSpace=wrap;size=20;arcSize=12;" vertex="1" parent="oOm5zM0nBoOnpF1ARKi1-68">
          <mxGeometry width="90.61" height="46" as="geometry" />
        </mxCell>
        <mxCell id="oOm5zM0nBoOnpF1ARKi1-70" value="Per-song effects" style="text;html=1;align=center;verticalAlign=middle;whiteSpace=wrap;rounded=0;" vertex="1" parent="oOm5zM0nBoOnpF1ARKi1-68">
          <mxGeometry x="20" y="8" width="68" height="30" as="geometry" />
        </mxCell>
        <mxCell id="oOm5zM0nBoOnpF1ARKi1-123" value="" style="ellipse;whiteSpace=wrap;html=1;fillColor=#1ba1e2;fontColor=#ffffff;strokeColor=#006EAF;" vertex="1" parent="oOm5zM0nBoOnpF1ARKi1-68">
          <mxGeometry y="26" width="20" height="20" as="geometry" />
        </mxCell>
        <mxCell id="oOm5zM0nBoOnpF1ARKi1-127" value="" style="verticalLabelPosition=bottom;verticalAlign=middle;html=1;shape=card;whiteSpace=wrap;size=20;arcSize=12;fillColor=none;" vertex="1" parent="oOm5zM0nBoOnpF1ARKi1-68">
          <mxGeometry width="90.61" height="46" as="geometry" />
        </mxCell>
        <mxCell id="oOm5zM0nBoOnpF1ARKi1-71" value="" style="group" vertex="1" connectable="0" parent="1">
          <mxGeometry x="830.61" y="134" width="90.61000000000001" height="46" as="geometry" />
        </mxCell>
        <mxCell id="oOm5zM0nBoOnpF1ARKi1-72" value="" style="verticalLabelPosition=bottom;verticalAlign=middle;html=1;shape=card;whiteSpace=wrap;size=20;arcSize=12;" vertex="1" parent="oOm5zM0nBoOnpF1ARKi1-71">
          <mxGeometry width="90.61" height="46" as="geometry" />
        </mxCell>
        <mxCell id="oOm5zM0nBoOnpF1ARKi1-73" value="Cross-song effects" style="text;html=1;align=center;verticalAlign=middle;whiteSpace=wrap;rounded=0;" vertex="1" parent="oOm5zM0nBoOnpF1ARKi1-71">
          <mxGeometry x="20" y="8" width="70" height="30" as="geometry" />
        </mxCell>
        <mxCell id="oOm5zM0nBoOnpF1ARKi1-124" value="" style="ellipse;whiteSpace=wrap;html=1;fillColor=#6a00ff;fontColor=#ffffff;strokeColor=#3700CC;" vertex="1" parent="oOm5zM0nBoOnpF1ARKi1-71">
          <mxGeometry y="26" width="20" height="20" as="geometry" />
        </mxCell>
        <mxCell id="oOm5zM0nBoOnpF1ARKi1-128" value="" style="verticalLabelPosition=bottom;verticalAlign=middle;html=1;shape=card;whiteSpace=wrap;size=20;arcSize=12;fillColor=none;" vertex="1" parent="oOm5zM0nBoOnpF1ARKi1-71">
          <mxGeometry width="90.61" height="46" as="geometry" />
        </mxCell>
        <mxCell id="oOm5zM0nBoOnpF1ARKi1-80" value="" style="curved=1;endArrow=classic;html=1;rounded=0;strokeWidth=3;" edge="1" parent="1">
          <mxGeometry width="50" height="50" relative="1" as="geometry">
            <mxPoint x="425.3" y="830" as="sourcePoint" />
            <mxPoint x="415.3" y="944" as="targetPoint" />
            <Array as="points">
              <mxPoint x="430" y="850" />
              <mxPoint x="430" y="910" />
            </Array>
          </mxGeometry>
        </mxCell>
        <mxCell id="oOm5zM0nBoOnpF1ARKi1-83" value="" style="ellipse;whiteSpace=wrap;html=1;fillColor=#60a917;fontColor=#ffffff;strokeColor=#2D7600;" vertex="1" parent="1">
          <mxGeometry x="10" y="10" width="20" height="20" as="geometry" />
        </mxCell>
        <mxCell id="oOm5zM0nBoOnpF1ARKi1-84" value="" style="ellipse;whiteSpace=wrap;html=1;fillColor=#1ba1e2;fontColor=#ffffff;strokeColor=#006EAF;" vertex="1" parent="1">
          <mxGeometry x="10" y="40" width="20" height="20" as="geometry" />
        </mxCell>
        <mxCell id="oOm5zM0nBoOnpF1ARKi1-85" value="" style="ellipse;whiteSpace=wrap;html=1;fillColor=#6a00ff;fontColor=#ffffff;strokeColor=#3700CC;" vertex="1" parent="1">
          <mxGeometry x="10" y="70" width="20" height="20" as="geometry" />
        </mxCell>
        <mxCell id="oOm5zM0nBoOnpF1ARKi1-86" value="REQUIRED" style="text;html=1;align=left;verticalAlign=middle;whiteSpace=wrap;rounded=0;spacing=3;" vertex="1" parent="1">
          <mxGeometry x="40" y="12.5" width="100" height="15" as="geometry" />
        </mxCell>
        <mxCell id="oOm5zM0nBoOnpF1ARKi1-87" value="ENHANCEMENT" style="text;html=1;align=left;verticalAlign=middle;whiteSpace=wrap;rounded=0;spacing=3;" vertex="1" parent="1">
          <mxGeometry x="40" y="42.5" width="100" height="15" as="geometry" />
        </mxCell>
        <mxCell id="oOm5zM0nBoOnpF1ARKi1-88" value="NO PROMISES" style="text;html=1;align=left;verticalAlign=middle;whiteSpace=wrap;rounded=0;spacing=3;" vertex="1" parent="1">
          <mxGeometry x="40" y="72.5" width="100" height="15" as="geometry" />
        </mxCell>
        <mxCell id="oOm5zM0nBoOnpF1ARKi1-119" value="Effectively allows buttons to have custom text upto a certain amount of characters (depending on control and layout)." style="text;html=1;align=left;verticalAlign=top;whiteSpace=wrap;rounded=0;" vertex="1" parent="1">
          <mxGeometry x="350.3" y="950" width="150" height="90" as="geometry" />
        </mxCell>
        <mxCell id="oOm5zM0nBoOnpF1ARKi1-129" value="" style="curved=1;endArrow=classic;html=1;rounded=0;strokeWidth=3;" edge="1" parent="1">
          <mxGeometry width="50" height="50" relative="1" as="geometry">
            <mxPoint x="550" y="820" as="sourcePoint" />
            <mxPoint x="570" y="940" as="targetPoint" />
            <Array as="points">
              <mxPoint x="554.7" y="840" />
              <mxPoint x="560" y="890" />
            </Array>
          </mxGeometry>
        </mxCell>
        <mxCell id="oOm5zM0nBoOnpF1ARKi1-130" value="Most of the view file&#39;s stuff is effectively like how skins work with a bunch of other media players and stuff. But I ain&#39;t smart enough to implement it in the same way." style="text;html=1;align=left;verticalAlign=top;whiteSpace=wrap;rounded=0;" vertex="1" parent="1">
          <mxGeometry x="200" y="756" width="160" height="100" as="geometry" />
        </mxCell>
        <mxCell id="oOm5zM0nBoOnpF1ARKi1-131" value="Probably more the option of preset layouts like vertical media controls etc." style="text;html=1;align=left;verticalAlign=top;whiteSpace=wrap;rounded=0;" vertex="1" parent="1">
          <mxGeometry x="520" y="940" width="130" height="63" as="geometry" />
        </mxCell>
        <mxCell id="oOm5zM0nBoOnpF1ARKi1-132" value="" style="curved=1;endArrow=classic;html=1;rounded=0;strokeWidth=3;" edge="1" parent="1">
          <mxGeometry width="50" height="50" relative="1" as="geometry">
            <mxPoint x="480" y="730" as="sourcePoint" />
            <mxPoint x="670" y="860" as="targetPoint" />
            <Array as="points">
              <mxPoint x="540" y="740" />
              <mxPoint x="630" y="790" />
            </Array>
          </mxGeometry>
        </mxCell>
        <mxCell id="oOm5zM0nBoOnpF1ARKi1-133" value="Instead of background colours, images for some of the panels." style="text;html=1;align=left;verticalAlign=top;whiteSpace=wrap;rounded=0;" vertex="1" parent="1">
          <mxGeometry x="620" y="860" width="130" height="50" as="geometry" />
        </mxCell>
        <mxCell id="oOm5zM0nBoOnpF1ARKi1-135" value="Just allows a colour picker for controls and their content (text)." style="text;html=1;align=left;verticalAlign=top;whiteSpace=wrap;rounded=0;" vertex="1" parent="1">
          <mxGeometry x="470.61" y="580" width="130" height="50" as="geometry" />
        </mxCell>
        <mxCell id="oOm5zM0nBoOnpF1ARKi1-136" value="" style="curved=1;endArrow=classic;html=1;rounded=0;strokeWidth=3;" edge="1" parent="1">
          <mxGeometry width="50" height="50" relative="1" as="geometry">
            <mxPoint x="570.61" y="670" as="sourcePoint" />
            <mxPoint x="670" y="710" as="targetPoint" />
            <Array as="points">
              <mxPoint x="600" y="670" />
              <mxPoint x="650" y="690" />
            </Array>
          </mxGeometry>
        </mxCell>
        <mxCell id="oOm5zM0nBoOnpF1ARKi1-137" value="Very unlikely, but allow the user to embed a font in the view file?" style="text;html=1;align=left;verticalAlign=top;whiteSpace=wrap;rounded=0;" vertex="1" parent="1">
          <mxGeometry x="620" y="708" width="130" height="50" as="geometry" />
        </mxCell>
        <mxCell id="oOm5zM0nBoOnpF1ARKi1-138" value="" style="curved=1;endArrow=classic;html=1;rounded=0;strokeWidth=3;" edge="1" parent="1">
          <mxGeometry width="50" height="50" relative="1" as="geometry">
            <mxPoint x="770.61" y="314" as="sourcePoint" />
            <mxPoint x="880.61" y="494" as="targetPoint" />
            <Array as="points">
              <mxPoint x="770.61" y="354" />
              <mxPoint x="820.61" y="474" />
            </Array>
          </mxGeometry>
        </mxCell>
        <mxCell id="oOm5zM0nBoOnpF1ARKi1-139" value="Allows certain effects to be applied on a per-song basis." style="text;html=1;align=left;verticalAlign=top;whiteSpace=wrap;rounded=0;" vertex="1" parent="1">
          <mxGeometry x="770.61" y="508" width="120" height="50" as="geometry" />
        </mxCell>
        <mxCell id="oOm5zM0nBoOnpF1ARKi1-140" value="" style="strokeWidth=2;html=1;shape=mxgraph.flowchart.annotation_2;align=left;labelPosition=right;pointerEvents=1;" vertex="1" parent="1">
          <mxGeometry x="890.61" y="408" width="60" height="190" as="geometry" />
        </mxCell>
        <mxCell id="oOm5zM0nBoOnpF1ARKi1-141" value="" style="group" vertex="1" connectable="0" parent="1">
          <mxGeometry x="930.61" y="418" width="90.61000000000001" height="46" as="geometry" />
        </mxCell>
        <mxCell id="oOm5zM0nBoOnpF1ARKi1-142" value="" style="verticalLabelPosition=bottom;verticalAlign=middle;html=1;shape=card;whiteSpace=wrap;size=20;arcSize=12;" vertex="1" parent="oOm5zM0nBoOnpF1ARKi1-141">
          <mxGeometry width="90.61" height="46" as="geometry" />
        </mxCell>
        <mxCell id="oOm5zM0nBoOnpF1ARKi1-143" value="Fade-in" style="text;html=1;align=center;verticalAlign=middle;whiteSpace=wrap;rounded=0;" vertex="1" parent="oOm5zM0nBoOnpF1ARKi1-141">
          <mxGeometry x="20" y="8" width="68" height="30" as="geometry" />
        </mxCell>
        <mxCell id="oOm5zM0nBoOnpF1ARKi1-144" value="" style="ellipse;whiteSpace=wrap;html=1;fillColor=#1ba1e2;fontColor=#ffffff;strokeColor=#006EAF;" vertex="1" parent="oOm5zM0nBoOnpF1ARKi1-141">
          <mxGeometry y="26" width="20" height="20" as="geometry" />
        </mxCell>
        <mxCell id="oOm5zM0nBoOnpF1ARKi1-145" value="" style="verticalLabelPosition=bottom;verticalAlign=middle;html=1;shape=card;whiteSpace=wrap;size=20;arcSize=12;fillColor=none;" vertex="1" parent="oOm5zM0nBoOnpF1ARKi1-141">
          <mxGeometry width="90.61" height="46" as="geometry" />
        </mxCell>
        <mxCell id="oOm5zM0nBoOnpF1ARKi1-146" value="" style="group" vertex="1" connectable="0" parent="1">
          <mxGeometry x="1035.61" y="418" width="105.30999999999995" height="46" as="geometry" />
        </mxCell>
        <mxCell id="oOm5zM0nBoOnpF1ARKi1-147" value="" style="verticalLabelPosition=bottom;verticalAlign=middle;html=1;shape=card;whiteSpace=wrap;size=20;arcSize=12;" vertex="1" parent="oOm5zM0nBoOnpF1ARKi1-146">
          <mxGeometry width="90.61" height="46" as="geometry" />
        </mxCell>
        <mxCell id="oOm5zM0nBoOnpF1ARKi1-148" value="Fade-out" style="text;html=1;align=center;verticalAlign=middle;whiteSpace=wrap;rounded=0;" vertex="1" parent="oOm5zM0nBoOnpF1ARKi1-146">
          <mxGeometry x="20" y="8" width="68" height="30" as="geometry" />
        </mxCell>
        <mxCell id="oOm5zM0nBoOnpF1ARKi1-149" value="" style="ellipse;whiteSpace=wrap;html=1;fillColor=#1ba1e2;fontColor=#ffffff;strokeColor=#006EAF;" vertex="1" parent="oOm5zM0nBoOnpF1ARKi1-146">
          <mxGeometry y="26" width="20" height="20" as="geometry" />
        </mxCell>
        <mxCell id="oOm5zM0nBoOnpF1ARKi1-150" value="" style="verticalLabelPosition=bottom;verticalAlign=middle;html=1;shape=card;whiteSpace=wrap;size=20;arcSize=12;fillColor=none;" vertex="1" parent="oOm5zM0nBoOnpF1ARKi1-146">
          <mxGeometry width="90.61" height="46" as="geometry" />
        </mxCell>
        <mxCell id="oOm5zM0nBoOnpF1ARKi1-151" value="" style="group" vertex="1" connectable="0" parent="1">
          <mxGeometry x="930.61" y="538" width="90.61000000000001" height="46" as="geometry" />
        </mxCell>
        <mxCell id="oOm5zM0nBoOnpF1ARKi1-152" value="" style="verticalLabelPosition=bottom;verticalAlign=middle;html=1;shape=card;whiteSpace=wrap;size=20;arcSize=12;" vertex="1" parent="oOm5zM0nBoOnpF1ARKi1-151">
          <mxGeometry width="90.61" height="46" as="geometry" />
        </mxCell>
        <mxCell id="oOm5zM0nBoOnpF1ARKi1-153" value="Volume adjustment" style="text;html=1;align=center;verticalAlign=middle;whiteSpace=wrap;rounded=0;" vertex="1" parent="oOm5zM0nBoOnpF1ARKi1-151">
          <mxGeometry x="20" y="8" width="68" height="30" as="geometry" />
        </mxCell>
        <mxCell id="oOm5zM0nBoOnpF1ARKi1-154" value="" style="ellipse;whiteSpace=wrap;html=1;fillColor=#1ba1e2;fontColor=#ffffff;strokeColor=#006EAF;" vertex="1" parent="oOm5zM0nBoOnpF1ARKi1-151">
          <mxGeometry y="26" width="20" height="20" as="geometry" />
        </mxCell>
        <mxCell id="oOm5zM0nBoOnpF1ARKi1-155" value="" style="verticalLabelPosition=bottom;verticalAlign=middle;html=1;shape=card;whiteSpace=wrap;size=20;arcSize=12;fillColor=none;" vertex="1" parent="oOm5zM0nBoOnpF1ARKi1-151">
          <mxGeometry width="90.61" height="46" as="geometry" />
        </mxCell>
        <mxCell id="oOm5zM0nBoOnpF1ARKi1-156" value="" style="group" vertex="1" connectable="0" parent="1">
          <mxGeometry x="930.61" y="478" width="90.61000000000001" height="46" as="geometry" />
        </mxCell>
        <mxCell id="oOm5zM0nBoOnpF1ARKi1-157" value="" style="verticalLabelPosition=bottom;verticalAlign=middle;html=1;shape=card;whiteSpace=wrap;size=20;arcSize=12;" vertex="1" parent="oOm5zM0nBoOnpF1ARKi1-156">
          <mxGeometry width="90.61" height="46" as="geometry" />
        </mxCell>
        <mxCell id="oOm5zM0nBoOnpF1ARKi1-158" value="In-song loop" style="text;html=1;align=center;verticalAlign=middle;whiteSpace=wrap;rounded=0;" vertex="1" parent="oOm5zM0nBoOnpF1ARKi1-156">
          <mxGeometry x="20" y="8" width="68" height="30" as="geometry" />
        </mxCell>
        <mxCell id="oOm5zM0nBoOnpF1ARKi1-159" value="" style="ellipse;whiteSpace=wrap;html=1;fillColor=#1ba1e2;fontColor=#ffffff;strokeColor=#006EAF;" vertex="1" parent="oOm5zM0nBoOnpF1ARKi1-156">
          <mxGeometry y="26" width="20" height="20" as="geometry" />
        </mxCell>
        <mxCell id="oOm5zM0nBoOnpF1ARKi1-160" value="" style="verticalLabelPosition=bottom;verticalAlign=middle;html=1;shape=card;whiteSpace=wrap;size=20;arcSize=12;fillColor=none;" vertex="1" parent="oOm5zM0nBoOnpF1ARKi1-156">
          <mxGeometry width="90.61" height="46" as="geometry" />
        </mxCell>
        <mxCell id="oOm5zM0nBoOnpF1ARKi1-161" value="" style="group" vertex="1" connectable="0" parent="1">
          <mxGeometry x="1035.61" y="538" width="90.61000000000001" height="46" as="geometry" />
        </mxCell>
        <mxCell id="oOm5zM0nBoOnpF1ARKi1-162" value="" style="verticalLabelPosition=bottom;verticalAlign=middle;html=1;shape=card;whiteSpace=wrap;size=20;arcSize=12;" vertex="1" parent="oOm5zM0nBoOnpF1ARKi1-161">
          <mxGeometry width="90.61" height="46" as="geometry" />
        </mxCell>
        <mxCell id="oOm5zM0nBoOnpF1ARKi1-163" value="Loop" style="text;html=1;align=center;verticalAlign=middle;whiteSpace=wrap;rounded=0;" vertex="1" parent="oOm5zM0nBoOnpF1ARKi1-161">
          <mxGeometry x="20" y="8" width="68" height="30" as="geometry" />
        </mxCell>
        <mxCell id="oOm5zM0nBoOnpF1ARKi1-164" value="" style="ellipse;whiteSpace=wrap;html=1;fillColor=#1ba1e2;fontColor=#ffffff;strokeColor=#006EAF;" vertex="1" parent="oOm5zM0nBoOnpF1ARKi1-161">
          <mxGeometry y="26" width="20" height="20" as="geometry" />
        </mxCell>
        <mxCell id="oOm5zM0nBoOnpF1ARKi1-165" value="" style="verticalLabelPosition=bottom;verticalAlign=middle;html=1;shape=card;whiteSpace=wrap;size=20;arcSize=12;fillColor=none;" vertex="1" parent="oOm5zM0nBoOnpF1ARKi1-161">
          <mxGeometry width="90.61" height="46" as="geometry" />
        </mxCell>
        <mxCell id="oOm5zM0nBoOnpF1ARKi1-171" value="" style="curved=1;endArrow=classic;html=1;rounded=0;strokeWidth=3;" edge="1" parent="1">
          <mxGeometry width="50" height="50" relative="1" as="geometry">
            <mxPoint x="976.22" y="584" as="sourcePoint" />
            <mxPoint x="985.61" y="638" as="targetPoint" />
            <Array as="points">
              <mxPoint x="985.61" y="598" />
            </Array>
          </mxGeometry>
        </mxCell>
        <mxCell id="oOm5zM0nBoOnpF1ARKi1-172" value="Allows the user to manually normalise the mix." style="text;html=1;align=left;verticalAlign=top;whiteSpace=wrap;rounded=0;" vertex="1" parent="1">
          <mxGeometry x="915.92" y="638" width="120" height="50" as="geometry" />
        </mxCell>
        <mxCell id="oOm5zM0nBoOnpF1ARKi1-173" value="Lets a song be looped x amount of times. Can be overriden with the &quot;next&quot; button." style="text;html=1;align=left;verticalAlign=top;whiteSpace=wrap;rounded=0;" vertex="1" parent="1">
          <mxGeometry x="1045.61" y="638" width="130" height="70" as="geometry" />
        </mxCell>
        <mxCell id="oOm5zM0nBoOnpF1ARKi1-174" value="" style="curved=1;endArrow=classic;html=1;rounded=0;strokeWidth=3;" edge="1" parent="1">
          <mxGeometry width="50" height="50" relative="1" as="geometry">
            <mxPoint x="1105.9099999999999" y="584" as="sourcePoint" />
            <mxPoint x="1115.3" y="638" as="targetPoint" />
            <Array as="points">
              <mxPoint x="1115.3" y="598" />
            </Array>
          </mxGeometry>
        </mxCell>
        <mxCell id="oOm5zM0nBoOnpF1ARKi1-175" value="" style="curved=1;endArrow=classic;html=1;rounded=0;strokeWidth=3;" edge="1" parent="1">
          <mxGeometry width="50" height="50" relative="1" as="geometry">
            <mxPoint x="1070" y="410" as="sourcePoint" />
            <mxPoint x="1040" y="380" as="targetPoint" />
            <Array as="points">
              <mxPoint x="1070" y="410" />
              <mxPoint x="1050" y="400" />
            </Array>
          </mxGeometry>
        </mxCell>
        <mxCell id="oOm5zM0nBoOnpF1ARKi1-176" value="Allows a song to fade-in at the start or fade-out at the end." style="text;html=1;align=left;verticalAlign=top;whiteSpace=wrap;rounded=0;" vertex="1" parent="1">
          <mxGeometry x="975.61" y="324" width="120" height="50" as="geometry" />
        </mxCell>
        <mxCell id="oOm5zM0nBoOnpF1ARKi1-177" value="" style="curved=1;endArrow=classic;html=1;rounded=0;strokeWidth=3;" edge="1" parent="1">
          <mxGeometry width="50" height="50" relative="1" as="geometry">
            <mxPoint x="1000" y="410" as="sourcePoint" />
            <mxPoint x="1018.61" y="376.0000000000002" as="targetPoint" />
            <Array as="points">
              <mxPoint x="1010" y="400" />
            </Array>
          </mxGeometry>
        </mxCell>
        <mxCell id="oOm5zM0nBoOnpF1ARKi1-178" value="" style="curved=1;endArrow=classic;html=1;rounded=0;strokeWidth=3;" edge="1" parent="1">
          <mxGeometry width="50" height="50" relative="1" as="geometry">
            <mxPoint x="1025.61" y="498" as="sourcePoint" />
            <mxPoint x="1155.61" y="538" as="targetPoint" />
            <Array as="points">
              <mxPoint x="1045.61" y="498" />
              <mxPoint x="1125.61" y="518" />
            </Array>
          </mxGeometry>
        </mxCell>
        <mxCell id="oOm5zM0nBoOnpF1ARKi1-179" value="Lets a specific part of a song be looped because that part&#39;s just so fam good." style="text;html=1;align=left;verticalAlign=top;whiteSpace=wrap;rounded=0;" vertex="1" parent="1">
          <mxGeometry x="1155.61" y="538" width="130" height="70" as="geometry" />
        </mxCell>
        <mxCell id="oOm5zM0nBoOnpF1ARKi1-180" value="" style="curved=1;endArrow=classic;html=1;rounded=0;strokeWidth=3;" edge="1" parent="1">
          <mxGeometry width="50" height="50" relative="1" as="geometry">
            <mxPoint x="871.2199999999996" y="134" as="sourcePoint" />
            <mxPoint x="921.2199999999996" y="84" as="targetPoint" />
            <Array as="points">
              <mxPoint x="871.2199999999996" y="124" />
              <mxPoint x="891.2199999999996" y="94" />
            </Array>
          </mxGeometry>
        </mxCell>
        <mxCell id="oOm5zM0nBoOnpF1ARKi1-181" value="Allows the user to specify an order to a set of songs or to shuffle (with optional hard-set start and end songs)." style="text;html=1;align=left;verticalAlign=top;whiteSpace=wrap;rounded=0;" vertex="1" parent="1">
          <mxGeometry x="600.61" y="34" width="150" height="80" as="geometry" />
        </mxCell>
        <mxCell id="oOm5zM0nBoOnpF1ARKi1-182" value="" style="curved=1;endArrow=classic;html=1;rounded=0;strokeWidth=3;" edge="1" parent="1">
          <mxGeometry width="50" height="50" relative="1" as="geometry">
            <mxPoint x="800.61" y="134" as="sourcePoint" />
            <mxPoint x="750.61" y="84" as="targetPoint" />
            <Array as="points">
              <mxPoint x="800.61" y="124" />
              <mxPoint x="780.61" y="94" />
            </Array>
          </mxGeometry>
        </mxCell>
        <mxCell id="oOm5zM0nBoOnpF1ARKi1-183" value="So far... Let a user loop a set of songs? IDK tbh." style="text;html=1;align=left;verticalAlign=top;whiteSpace=wrap;rounded=0;" vertex="1" parent="1">
          <mxGeometry x="930.61" y="54" width="100" height="50" as="geometry" />
        </mxCell>
        <mxCell id="oOm5zM0nBoOnpF1ARKi1-184" value="" style="curved=1;endArrow=classic;html=1;rounded=0;strokeWidth=3;" edge="1" parent="1" target="oOm5zM0nBoOnpF1ARKi1-185">
          <mxGeometry width="50" height="50" relative="1" as="geometry">
            <mxPoint x="820.61" y="214" as="sourcePoint" />
            <mxPoint x="910.6099999999996" y="214" as="targetPoint" />
            <Array as="points">
              <mxPoint x="840.61" y="204" />
              <mxPoint x="890.61" y="204" />
            </Array>
          </mxGeometry>
        </mxCell>
        <mxCell id="oOm5zM0nBoOnpF1ARKi1-185" value="Also no clue, but something&#39;ll come along." style="text;html=1;align=left;verticalAlign=top;whiteSpace=wrap;rounded=0;" vertex="1" parent="1">
          <mxGeometry x="930.61" y="224" width="100" height="50" as="geometry" />
        </mxCell>
      </root>
    </mxGraphModel>
  </diagram>
</mxfile>
